<svg width="24" height="24" viewBox="0 0 24 24" fill="none" xmlns="http://www.w3.org/2000/svg">
<path d="M14.7 4.86376L19.1362 9.29996M4.16406 19.8359H8.60026L20.2453 8.19091C20.5366 7.89962 20.7676 7.55382 20.9253 7.17323C21.0829 6.79265 21.1641 6.38475 21.1641 5.97281C21.1641 5.56087 21.0829 5.15296 20.9253 4.77238C20.7676 4.3918 20.5366 4.04599 20.2453 3.75471C19.954 3.46342 19.6082 3.23236 19.2276 3.07472C18.847 2.91708 18.4391 2.83594 18.0272 2.83594C17.6153 2.83594 17.2073 2.91708 16.8268 3.07472C16.4462 3.23236 16.1004 3.46342 15.8091 3.75471L4.16406 15.3997V19.8359Z" stroke="black" stroke-width="1.5" stroke-linecap="round" stroke-linejoin="round"/>
</svg>
