<svg width="104" height="22" viewBox="0 0 104 22" fill="none" xmlns="http://www.w3.org/2000/svg">
<path d="M102.245 13.824L98.8365 14.232L97.7565 0H103.325L102.245 13.824ZM103.997 18.072L100.517 21.408L97.0605 18.072L100.517 14.736L103.997 18.072Z" fill="white"/>
<path d="M89.9694 21.36H80.3934C77.2494 21.36 75.0174 19.944 75.0174 17.16C75.0174 14.352 77.2494 13.176 80.3934 12.984L89.9694 12.408C93.1134 12.216 94.8654 14.088 94.8654 16.848C94.8654 19.656 93.1134 21.36 89.9694 21.36ZM96.0894 11.16L73.8174 12.6V8.90397L80.2254 8.49597V5.63997H85.2414V8.18397L96.0894 7.48797V11.16ZM94.2894 7.00797L89.3454 7.31997V4.24797H75.2334V0.383972H94.2894V7.00797ZM89.1054 16.128L80.8974 16.512C80.4174 16.536 79.8654 16.632 79.8654 17.064C79.8654 17.496 80.4174 17.544 80.8974 17.52L89.0574 17.232C89.5374 17.208 90.0174 17.064 90.0174 16.656C90.0174 16.224 89.5854 16.104 89.1054 16.128Z" fill="white"/>
<path d="M67.0383 21.36H58.1823C54.9183 21.36 52.8303 19.512 52.8303 16.704C52.8303 13.896 54.9423 12.264 58.1823 12.024L67.0383 11.376C70.3023 11.136 72.4143 13.08 72.4143 16.368C72.4143 19.416 70.3263 21.36 67.0383 21.36ZM71.9583 10.44L67.0143 10.944V5.90399L64.4223 6.11999L66.9183 7.63199L64.1343 11.424L58.8543 8.03999L52.8543 12.384L50.0703 8.83199L56.2383 4.34399V0.359985H61.3023V4.19999L63.8463 5.75999V1.96799L67.0143 1.70399V0.359985H71.9583V10.44ZM66.1023 15.6L59.0943 16.056C58.3743 16.104 57.6303 16.2 57.6543 16.728C57.6783 17.256 58.4223 17.232 59.1423 17.232L66.1503 16.848C66.8703 16.824 67.5903 16.704 67.5663 16.176C67.5423 15.648 66.8223 15.552 66.1023 15.6Z" fill="white"/>
<path d="M43.5705 21.12H24.1545V15.264L38.1705 14.304V13.752L24.1545 14.712V11.928L31.1625 11.448V10.272L22.5225 10.872V7.58399L38.0505 6.52799V3.93598H23.9385V0.359985H42.9945V6.16798L44.7945 6.04799V9.33599L36.1545 9.93599V11.088L43.1145 10.584V16.32L29.0985 17.304V17.88L43.5705 17.016V21.12Z" fill="white"/>
<path d="M20.16 21.12H1.392V15.336L14.76 14.136V13.608L1.392 14.808V11.784L19.704 10.008V16.008L6.336 17.208V17.76L20.16 16.56V21.12ZM13.368 9.91199L0 11.376V0.359985H4.92V2.15999L8.448 1.79998V0.359985H13.368V9.91199ZM22.248 7.82399L19.704 8.11199V9.40799L14.76 9.91199V0.359985H19.704V3.21599L22.248 2.92799V7.82399ZM8.448 6.81599V5.27998L4.92 5.63999V7.17599L8.448 6.81599Z" fill="white"/>
</svg>
