<svg width="24" height="24" viewBox="0 0 24 24" fill="none" xmlns="http://www.w3.org/2000/svg">
<path d="M7.44703 5.83809L7.3891 5.78357C7.17486 5.57666 6.88794 5.46218 6.59011 5.46477C6.29229 5.46735 6.00739 5.58681 5.79679 5.7974C5.58619 6.008 5.46673 6.29288 5.46414 6.59069C5.46155 6.88851 5.57604 7.17542 5.78295 7.38964L5.83748 7.44644C3.8883 9.72606 2.64905 12.6247 3.08863 15.6699C3.12874 15.8708 3.22243 16.0571 3.35977 16.209C3.49711 16.361 3.673 16.473 3.8688 16.5332C4.0646 16.5934 4.27304 16.5995 4.47203 16.5509C4.67103 16.5023 4.85318 16.4008 4.99919 16.2571C5.90449 15.1792 6.81661 14.1104 7.79915 13.1018C8.36395 12.5152 8.95842 11.9579 9.58022 11.4321L18.2334 20.6415C18.3375 20.7524 18.4629 20.8413 18.602 20.9029C18.7412 20.9644 18.8913 20.9974 19.0434 20.9998C19.1956 21.0023 19.3466 20.9741 19.4877 20.9171C19.6287 20.86 19.7569 20.7752 19.8645 20.6676L20.6676 19.8646C20.7752 19.7569 20.86 19.6288 20.9171 19.4878C20.9741 19.3467 21.0023 19.1956 20.9999 19.0435C20.9974 18.8914 20.9644 18.7413 20.9029 18.6021C20.8413 18.463 20.7524 18.3376 20.6415 18.2335L11.4317 9.58068C11.9589 8.96016 12.5162 8.36579 13.1015 7.79968C14.0783 6.84785 15.1097 5.96303 16.157 5.08957C16.3261 4.9544 16.453 4.77374 16.5229 4.56885C16.5927 4.36397 16.6025 4.14339 16.5512 3.9331C16.4999 3.72281 16.3895 3.53156 16.2332 3.38187C16.0768 3.23219 15.8809 3.13031 15.6686 3.08822C12.6244 2.64979 9.72561 3.88899 7.44703 5.83809Z" fill="#212121"/>
</svg>
