<svg width="107" height="22" viewBox="0 0 107 22" fill="none" xmlns="http://www.w3.org/2000/svg">
<path d="M104.621 13.824L101.213 14.232L100.133 0H105.701L104.621 13.824ZM106.373 18.072L102.893 21.408L99.4365 18.072L102.893 14.736L106.373 18.072Z" fill="white"/>
<path d="M96.9105 13.896L91.9665 14.4V7.34405L89.3025 7.56005V4.51205H86.2545V5.92805L91.6305 9.26405L88.8465 12.936L83.8065 9.64805L77.8065 13.872L75.0225 10.416L81.1905 6.04805V4.51205H76.6305V0.456047H90.5745V3.02405L91.9665 2.90405V0.360046H96.9105V13.896ZM97.1265 20.808H78.7185V13.968L83.6625 13.512V16.68L97.1265 15.48V20.808Z" fill="white"/>
<path d="M74.4634 20.304H52.1914V16.248L60.7834 15.744V13.008L53.9914 13.392V0.480042H72.6634V4.77604H58.9354V8.61604L72.6634 7.70404V12.312L65.8714 12.72V15.456L74.4634 14.928V20.304Z" fill="white"/>
<path d="M44.046 21.12H24.63V15.264L38.646 14.304V13.752L24.63 14.712V11.928L31.638 11.448V10.272L22.998 10.872V7.58405L38.526 6.52805V3.93605H24.414V0.360046H43.47V6.16805L45.27 6.04805V9.33605L36.63 9.93605V11.088L43.59 10.584V16.32L29.574 17.304V17.88L44.046 17.016V21.12Z" fill="white"/>
<path d="M20.16 21.12H1.392V15.336L14.76 14.136V13.608L1.392 14.808V11.784L19.704 10.008V16.008L6.336 17.208V17.76L20.16 16.56V21.12ZM13.368 9.91205L0 11.376V0.360046H4.92V2.16005L8.448 1.80005V0.360046H13.368V9.91205ZM22.248 7.82405L19.704 8.11205V9.40805L14.76 9.91205V0.360046H19.704V3.21605L22.248 2.92805V7.82405ZM8.448 6.81605V5.28005L4.92 5.64005V7.17605L8.448 6.81605Z" fill="white"/>
</svg>
