<svg width="24" height="24" viewBox="0 0 24 24" fill="none" xmlns="http://www.w3.org/2000/svg">
<circle cx="17" cy="7.5" r="3" fill="#CDFF00"/>
<path d="M11 17.5C11 14.1863 13.6863 11.5 17 11.5C20.3137 11.5 23 14.1863 23 17.5V18.5C23 19.0523 22.5523 19.5 22 19.5H12C11.4477 19.5 11 19.0523 11 18.5L11 17.5Z" fill="#CDFF00"/>
<ellipse cx="6.56708" cy="8.16753" rx="2.74921" ry="2.81792" fill="#CDFF00"/>
<path d="M6.63574 11.9248C8.28888 11.9248 9.77572 12.6367 10.8066 13.7705C10.031 14.7815 9.56935 16.0462 9.56934 17.4189V18.9189C9.56934 19.1359 9.63944 19.3361 9.75684 19.5H2C1.44773 19.5 1.00003 19.0523 1 18.5V17.5605C1.00005 14.448 3.52323 11.9249 6.63574 11.9248Z" fill="#CDFF00"/>
</svg>
