<svg width="160" height="39" viewBox="0 0 160 39" fill="none" xmlns="http://www.w3.org/2000/svg">
<path d="M160 21.8408L121.022 24.2769V18.1027L136.059 17.1786V15.8766L124.173 16.6326V1.51208H156.85V7.4343H132.825V10.0804L156.85 8.82034V14.4905L144.963 15.2886V16.6326L160 15.6666V21.8408ZM149.289 38.2214H132.111C126.609 38.2214 123.123 35.8693 123.123 31.2071C123.123 26.545 126.609 24.6129 132.111 24.2769L149.289 23.2269C154.792 22.8908 157.858 26.041 157.858 30.6611C157.858 35.3233 154.792 38.2214 149.289 38.2214ZM147.819 29.4431L133.497 30.3671C132.657 30.4091 131.607 30.4511 131.607 31.1651C131.607 31.8792 132.657 31.8792 133.497 31.8372L147.651 31.1651C148.491 31.1231 149.373 30.9551 149.373 30.2411C149.373 29.5271 148.659 29.4011 147.819 29.4431Z" fill="white"/>
<path d="M117.77 19.9507L109.117 20.8328V18.4807L105.841 18.8587V20.2448L82.4463 22.6808V1.47009H91.0566V5.46024L97.2308 4.83021V1.47009H105.841V3.10815L109.117 2.73014V1.47009H117.77V19.9507ZM109.159 38.2214H93.6607C87.9485 38.2214 84.2944 35.4073 84.2944 30.4931C84.2944 25.5789 87.9905 23.1429 93.6607 22.7228L109.159 21.5888C114.871 21.1688 118.568 24.1509 118.568 29.9051C118.568 35.2393 114.913 38.2214 109.159 38.2214ZM107.521 28.6031L95.2567 29.3591C93.9967 29.4431 92.7367 29.5271 92.7367 30.4091C92.7367 31.3332 94.5007 31.2492 95.3407 31.2071L107.605 30.5351C108.823 30.4511 110.083 30.3251 110.083 29.4431C110.083 28.5191 108.319 28.5611 107.521 28.6031ZM97.2308 14.1965V11.3824L91.0566 12.0125V14.8266L97.2308 14.1965ZM109.117 11.2144V10.0384L105.841 10.3744V11.5505L109.117 11.2144Z" fill="white"/>
<path d="M77.8479 36.7093L70.2457 38.1794V21.5048L67.1376 21.8408V36.0793L59.6193 37.5914V34.4413L41.2646 36.6253V2.01611H57.7712V9.11436H48.6989V27.637L59.6193 26.293V1.47009H67.1376V13.2725L70.2457 12.9365V1.47009H77.8479V36.7093Z" fill="white"/>
<path d="M38.9774 23.5208L0 25.8309V20.4967L15.0365 19.6147V18.3547C8.65231 18.2286 4.24215 16.8426 4.24215 13.2725C4.24215 12.6845 4.36816 12.1384 4.66217 11.6344H1.68006V6.25823H37.2973V11.6344H34.2732C34.5672 12.1384 34.7352 12.6845 34.7352 13.2725C34.7352 16.8426 30.3251 18.2286 23.9409 18.3547V19.1107L38.9774 18.1867V23.5208ZM27.427 38.2214H11.9284C6.42623 38.2214 2.10007 36.5833 2.10007 31.8791C2.10007 27.259 6.42623 26.2929 11.9284 25.9569L27.427 24.9909C32.9292 24.6549 36.8353 26.755 36.8353 31.3751C36.8353 36.0373 32.9292 38.2214 27.427 38.2214ZM30.1571 5.5022H8.82031V0H30.1571V5.5022ZM26.965 30.4511L12.0964 31.3751C11.0044 31.4591 10.6684 31.7531 10.6684 32.1311C10.6684 32.4672 11.0044 32.6772 11.8444 32.6352L26.965 31.7951C27.931 31.7531 28.309 31.4171 28.309 30.9971C28.309 30.5351 27.805 30.4091 26.965 30.4511ZM22.7648 11.3404H16.2126C14.4905 11.3404 12.8525 11.3404 12.8525 12.1804C12.8525 12.9785 14.4905 13.0205 16.2126 13.0205H22.7648C24.4869 13.0205 26.1249 12.9785 26.1249 12.1804C26.1249 11.3404 24.4869 11.3404 22.7648 11.3404Z" fill="white"/>
</svg>
