<svg width="92" height="22" viewBox="0 0 92 22" fill="none" xmlns="http://www.w3.org/2000/svg">
<path d="M22.272 13.44L-2.34246e-05 14.76V11.712L8.59198 11.208V10.488C4.94398 10.416 2.42398 9.624 2.42398 7.584C2.42398 7.248 2.49598 6.936 2.66398 6.648H0.959977V3.576H21.312V6.648H19.584C19.752 6.936 19.848 7.248 19.848 7.584C19.848 9.624 17.328 10.416 13.68 10.488V10.92L22.272 10.392V13.44ZM15.672 21.84H6.81598C3.67198 21.84 1.19998 20.904 1.19998 18.216C1.19998 15.576 3.67198 15.024 6.81598 14.832L15.672 14.28C18.816 14.088 21.048 15.288 21.048 17.928C21.048 20.592 18.816 21.84 15.672 21.84ZM17.232 3.144H5.03998V2.38419e-06H17.232V3.144ZM15.408 17.4L6.91198 17.928C6.28798 17.976 6.09598 18.144 6.09598 18.36C6.09598 18.552 6.28798 18.672 6.76798 18.648L15.408 18.168C15.96 18.144 16.176 17.952 16.176 17.712C16.176 17.448 15.888 17.376 15.408 17.4ZM13.008 6.48H9.26398C8.27998 6.48 7.34398 6.48 7.34398 6.96C7.34398 7.416 8.27998 7.44 9.26398 7.44H13.008C13.992 7.44 14.928 7.416 14.928 6.96C14.928 6.48 13.992 6.48 13.008 6.48ZM44.4832 20.976L40.1392 21.816V12.288L38.3632 12.48V20.616L34.0672 21.48V19.68L23.5792 20.928V1.152H33.0112V5.208H27.8272V15.792L34.0672 15.024V0.840003H38.3632V7.584L40.1392 7.392V0.840003H44.4832V20.976ZM67.2945 11.4L62.3505 11.904V10.56L60.4785 10.776V11.568L47.1105 12.96V0.840003H52.0305V3.12L55.5585 2.76V0.840003H60.4785V1.776L62.3505 1.56V0.840003H67.2945V11.4ZM62.3745 21.84H53.5185C50.2545 21.84 48.1665 20.232 48.1665 17.424C48.1665 14.616 50.2785 13.224 53.5185 12.984L62.3745 12.336C65.6385 12.096 67.7505 13.8 67.7505 17.088C67.7505 20.136 65.6625 21.84 62.3745 21.84ZM61.4385 16.344L54.4305 16.776C53.7105 16.824 52.9905 16.872 52.9905 17.376C52.9905 17.904 53.9985 17.856 54.4785 17.832L61.4865 17.448C62.1825 17.4 62.9025 17.328 62.9025 16.824C62.9025 16.296 61.8945 16.32 61.4385 16.344ZM55.5585 8.112V6.504L52.0305 6.864V8.472L55.5585 8.112ZM62.3505 6.408V5.736L60.4785 5.928V6.6L62.3505 6.408ZM91.4257 12.48L69.1537 13.872V10.344L77.7457 9.816V9.072L70.9537 9.504V0.864003H89.6257V4.248H75.8977V5.76L89.6257 5.04V8.28L82.8337 8.736V9.504L91.4257 8.952V12.48ZM85.3057 21.84H75.4897C72.3457 21.84 70.3537 20.496 70.3537 17.832C70.3537 15.168 72.3457 14.064 75.4897 13.872L85.3057 13.272C88.4497 13.08 90.2017 14.88 90.2017 17.52C90.2017 20.184 88.4497 21.84 85.3057 21.84ZM84.4657 16.824L76.2817 17.352C75.8017 17.376 75.2017 17.4 75.2017 17.808C75.2017 18.216 75.8017 18.216 76.2817 18.192L84.3697 17.808C84.8497 17.784 85.3537 17.688 85.3537 17.28C85.3537 16.872 84.9457 16.8 84.4657 16.824Z" fill="white"/>
</svg>
