<svg width="24" height="24" viewBox="0 0 24 24" fill="none" xmlns="http://www.w3.org/2000/svg">
<path d="M10.7285 4.04614C11.4669 3.43832 12.5331 3.43832 13.2715 4.04614L19.2715 8.9856C19.7328 9.36551 20 9.93191 20 10.5295V19.0002C19.9999 20.1047 19.1045 21.0002 18 21.0002H6C4.89549 21.0002 4.0001 20.1047 4 19.0002V10.5295C4 9.93191 4.2672 9.36551 4.72852 8.9856L10.7285 4.04614ZM8.75 16.0002C8.33579 16.0002 8 16.336 8 16.7502C8.0001 17.1644 8.33585 17.5002 8.75 17.5002H15.25C15.6642 17.5002 15.9999 17.1644 16 16.7502C16 16.336 15.6642 16.0002 15.25 16.0002H8.75Z" fill="#CDFF00"/>
</svg>
